<svg xmlns="http://www.w3.org/2000/svg" xmlns:xlink="http://www.w3.org/1999/xlink" viewBox="0,0,256,256" width="50px" height="50px" fill-rule="nonzero"><g fill="#ffffff" fill-rule="nonzero" stroke="none" stroke-width="1" stroke-linecap="butt" stroke-linejoin="miter" stroke-miterlimit="10" stroke-dasharray="" stroke-dashoffset="0" font-family="none" font-weight="none" font-size="none" text-anchor="none" style="mix-blend-mode: normal"><g transform="scale(5.12,5.12)"><path d="M25,2c-12.68,0 -23,10.32 -23,23c0,12.68 10.32,23 23,23c12.68,0 23,-10.32 23,-23c0,-4.06743 -1.06941,-7.88435 -2.92773,-11.20312c1.15176,-2.60615 2.55241,-5.01812 4.02734,-7.39453c0.206,-0.331 0.20038,-0.75312 -0.01562,-1.07812c-0.214,-0.325 -0.59437,-0.4995 -0.98437,-0.4375c-3.2141,0.49344 -6.19043,1.18261 -8.96094,2.01172c-3.90532,-3.05995 -8.81004,-4.89844 -14.13867,-4.89844zM25,4c4.37101,0 8.42882,1.35602 11.79102,3.65039c-20.66998,7.10512 -28.37679,22.16919 -29.76367,25.24219c-0.62567,-0.12478 -1.22568,-0.36084 -1.76562,-0.7168c-0.8169,-2.24002 -1.26172,-4.65656 -1.26172,-7.17578c0,-11.58 9.42,-21 21,-21zM46.25781,7.22656c-4.05677,6.82425 -7.21268,14.24044 -5.57227,25.75c-1.85492,-0.1187 -3.51057,-1.25744 -4.26953,-2.98828c-0.159,-0.365 -0.51902,-0.59961 -0.91602,-0.59961c-0.397,0 -0.75702,0.23561 -0.91602,0.59961c-0.802,1.829 -2.60198,3.01172 -4.58398,3.01172c-1.982,0 -3.78098,-1.18272 -4.58398,-3.01172c-0.16,-0.365 -0.51902,-0.59961 -0.91602,-0.59961c-0.397,0 -0.75702,0.23561 -0.91602,0.59961c-0.803,1.829 -2.60198,3.01172 -4.58398,3.01172c-1.982,0 -3.78098,-1.18272 -4.58398,-3.01172c-0.16,-0.365 -0.51902,-0.59961 -0.91602,-0.59961c-0.397,0 -0.75702,0.23561 -0.91602,0.59961c-0.6247,1.42289 -1.85522,2.44588 -3.30273,2.83398c2.53233,-4.9922 12.42639,-21.01928 36.97656,-25.5957zM44.08789,16.25586c1.22799,2.66126 1.91211,5.62728 1.91211,8.74414c0,1.96472 -0.27633,3.86502 -0.7832,5.66992c-0.61464,0.96618 -1.51376,1.6674 -2.54883,2.03516c-0.94856,-6.66556 -0.19971,-11.90418 1.41992,-16.44922zM13.5,32.32031c1.311,1.667 3.327,2.67969 5.5,2.67969c2.173,0 4.189,-1.01269 5.5,-2.67969c1.311,1.667 3.326,2.67969 5.5,2.67969c2.174,0 4.189,-1.01269 5.5,-2.67969c1.311,1.667 3.326,2.67969 5.5,2.67969c0.95928,0 1.88248,-0.19937 2.73242,-0.56055c-3.46399,6.84595 -10.54946,11.56055 -18.73242,11.56055c-8.03815,0 -15.02622,-4.54382 -18.55469,-11.19336c0.30682,0.07019 0.61779,0.12031 0.93359,0.14844c0.08186,0.02087 0.16421,0.04492 0.24609,0.04492c0.04197,0 0.08181,-0.01429 0.12305,-0.01953c0.08456,0.00305 0.16701,0.01953 0.25195,0.01953c2.173,0 4.189,-1.01269 5.5,-2.67969z"></path></g></g></svg>